# xmcd
#
# Track frame offsets:
#	150
#	21594
#	32071
#	60466
#	77419
#	96451
#	120616
#	140371
#	156715
#	164683
#	189587
#	201488
#	226947
#	234363
#
# Disc length: 3157 seconds
#
# Revision: 0
# Processed by: cddbd v1.5.2PL0 Copyright (c) Steve Scherf et al.
# Submitted via: EasyCDDAExtractor 16.1.0.1
#
DISCID=c30c530e
DTITLE=B.B. King - Fillmore East   New York City, NY   06-19-71   Disc 2 - 197
DTITLE=1
DYEAR=1971
DGENRE=Blues
TTITLE0=Instrumental #4
TTITLE1=Every Day I Have The Blues
TTITLE2=How Blue Can You Get
TTITLE3=Instrumental #5
TTITLE4=A Whole Lotta Lovin'
TTITLE5=Nobody Loves Me But My Mother
TTITLE6=Humminigbird
TTITLE7=Instrumental #6
TTITLE8=Intros
TTITLE9=Sweet Sixteen
TTITLE10=Instrumental #7
TTITLE11=The Thrill is Gone
TTITLE12=Instrumental #8
TTITLE13=Crowd
EXTD=
EXTT0=
EXTT1=
EXTT2=
EXTT3=
EXTT4=
EXTT5=
EXTT6=
EXTT7=
EXTT8=
EXTT9=
EXTT10=
EXTT11=
EXTT12=
EXTT13=
PLAYORDER=
